<svg width="1512" height="817" viewBox="0 0 1512 817" fill="none" xmlns="http://www.w3.org/2000/svg">
<path d="M-235 0L-180.793 19.3869C-126.79 38.6149 -18.3768 77.3887 89.8333 109.329C198.043 141.429 306.457 166.855 414.667 154.936C522.877 143.018 631.29 93.7563 739.5 96.6167C847.71 99.636 956.123 154.619 1064.33 160.975C1172.54 167.331 1280.96 125.061 1389.17 99.3182C1497.38 73.5749 1605.79 64.676 1659.79 60.0676L1714 55.6182V437H1659.79C1605.79 437 1497.38 437 1389.17 437C1280.96 437 1172.54 437 1064.33 437C956.123 437 847.71 437 739.5 437C631.29 437 522.877 437 414.667 437C306.457 437 198.043 437 89.8333 437C-18.3768 437 -126.79 437 -180.793 437H-235V0Z" fill="#2A94FE"/>
<path d="M1686 817L1631.79 797.613C1577.79 778.385 1469.38 739.611 1361.17 707.671C1252.96 675.571 1144.54 650.145 1036.33 662.064C928.123 673.982 819.71 723.244 711.5 720.383C603.29 717.364 494.877 662.381 386.667 656.025C278.457 649.669 170.043 691.939 61.8333 717.682C-46.3768 743.425 -154.79 752.324 -208.793 756.932L-263 761.382V380H-208.793C-154.79 380 -46.3768 380 61.8333 380C170.043 380 278.457 380 386.667 380C494.877 380 603.29 380 711.5 380C819.71 380 928.123 380 1036.33 380C1144.54 380 1252.96 380 1361.17 380C1469.38 380 1577.79 380 1631.79 380H1686V817Z" fill="#2A94FE"/>
</svg>
