<svg width="338" height="699" viewBox="0 0 338 699" fill="none" xmlns="http://www.w3.org/2000/svg">
<path d="M-14 0C8.7 15.6 31.4 31.3 58.3 34.6C85.3 38 116.5 29.1 134.4 43.4C152.2 57.6 156.7 95.1 178 110.7C199.4 126.3 237.7 119.9 260.8 132.3C284 144.7 291.9 176 291.4 204.4C290.9 232.8 282 258.5 288.2 282.5C294.5 306.6 316 329 337.5 351.5H-14V0Z" fill="#ECF1FF"/>
<path d="M-14 70.3C4.1 82.8 22.3 95.3 43.9 98C65.4 100.7 90.4 93.6 104.7 105C119 116.4 122.5 146.4 139.6 158.9C156.7 171.3 187.4 166.2 205.9 176.2C224.4 186.1 230.7 211.1 230.3 233.8C229.9 256.6 222.8 277.1 227.8 296.3C232.8 315.6 250 333.5 267.2 351.5H-14V70.3Z" fill="#C3D5FF"/>
<path d="M-14 140.6C-0.4 150 13.2 159.4 29.4 161.4C45.6 163.4 64.3 158.1 75 166.6C85.7 175.2 88.4 197.7 101.2 207C114 216.4 137 212.5 150.9 220C164.8 227.4 169.6 246.2 169.3 263.2C169 280.3 163.6 295.7 167.3 310.1C171.1 324.5 184 338 196.9 351.5H-14V140.6Z" fill="#96BAFF"/>
<path d="M-14 210.9C-4.9 217.1 4.1 223.4 14.9 224.8C25.7 226.1 38.2 222.5 45.4 228.2C52.5 234 54.3 249 62.8 255.2C71.4 261.4 86.7 258.9 95.9 263.8C105.2 268.8 108.4 281.3 108.2 292.7C108 304 104.4 314.3 106.9 323.9C109.4 333.5 118 342.5 126.6 351.5H-14V210.9Z" fill="#5CA0FF"/>
<path d="M-14 281.2C-9.5 284.3 -4.9 287.5 0.5 288.1C5.9 288.8 12.1 287 15.7 289.9C19.2 292.7 20.1 300.2 24.4 303.3C28.7 306.5 36.3 305.2 41 307.7C45.6 310.1 47.2 316.4 47.1 322.1C47 327.8 45.2 332.9 46.4 337.7C47.7 342.5 52 347 56.3 351.5H-14V281.2Z" fill="#2A94FE"/>
<path d="M337.5 347C321.9 369.7 306.2 392.4 302.9 419.3C299.5 446.3 308.4 477.5 294.1 495.4C279.9 513.2 242.4 517.7 226.8 539C211.2 560.4 217.6 598.7 205.2 621.8C192.8 645 161.5 652.9 133.1 652.4C104.7 651.9 79 643 55 649.2C30.9 655.5 8.5 677 -14 698.5L-14 347L337.5 347Z" fill="#ECF1FF"/>
<path d="M267.2 347C254.7 365.1 242.2 383.3 239.5 404.9C236.8 426.4 243.9 451.4 232.5 465.7C221.1 480 191.1 483.5 178.6 500.6C166.2 517.7 171.3 548.4 161.3 566.9C151.4 585.4 126.4 591.7 103.7 591.3C80.9 590.9 60.4 583.8 41.2 588.8C21.9 593.8 4 611 -14 628.2L-14 347L267.2 347Z" fill="#C3D5FF"/>
<path d="M196.9 347C187.5 360.6 178.1 374.2 176.1 390.4C174.1 406.6 179.4 425.3 170.9 436C162.3 446.7 139.8 449.4 130.5 462.2C121.1 475 125 498 117.5 511.9C110.1 525.8 91.3 530.6 74.3 530.3C57.2 530 41.8 524.6 27.4 528.3C13 532.1 -0.499969 545 -14 557.9L-14 347L196.9 347Z" fill="#96BAFF"/>
<path d="M126.6 347C120.4 356.1 114.1 365.1 112.7 375.9C111.4 386.7 115 399.2 109.3 406.4C103.5 413.5 88.5 415.3 82.3 423.8C76.1 432.4 78.6 447.7 73.7 456.9C68.7 466.2 56.2 469.4 44.8 469.2C33.5 469 23.2 465.4 13.6 467.9C3.99997 470.4 -5.00003 479 -14 487.6L-14 347L126.6 347Z" fill="#5CA0FF"/>
<path d="M56.3 347C53.2 351.5 50 356.1 49.4 361.5C48.7 366.9 50.5 373.1 47.6 376.7C44.8 380.2 37.3 381.1 34.2 385.4C31 389.7 32.3 397.3 29.8 402C27.4 406.6 21.1 408.2 15.4 408.1C9.69999 408 4.59998 406.2 -0.200016 407.4C-5.00002 408.7 -9.50002 413 -14 417.3L-14 347H56.3Z" fill="#2A94FE"/>
</svg>
