<svg width="325" height="693" viewBox="0 0 325 693" fill="none" xmlns="http://www.w3.org/2000/svg">
<g clip-path="url(#clip0_14_676)">
<path d="M339.19 322.264C319.94 338.756 317.704 367.731 334.196 386.981C350.688 406.231 379.663 408.466 398.913 391.974C418.163 375.482 420.399 346.507 403.906 327.257C387.414 308.007 358.44 305.772 339.19 322.264Z" fill="#2A94FE"/>
<path d="M217.972 352.538C210.718 358.753 209.876 369.671 216.09 376.924C222.305 384.178 233.223 385.02 240.476 378.806C247.73 372.591 248.572 361.673 242.358 354.42C236.143 347.166 225.225 346.324 217.972 352.538Z" fill="#2A94FE"/>
<path d="M282.011 170.665C263.319 186.679 261.148 214.814 277.162 233.506C293.176 252.198 321.311 254.368 340.003 238.354C358.695 222.34 360.866 194.205 344.852 175.513C328.838 156.821 300.703 154.651 282.011 170.665Z" fill="#2A94FE"/>
<path d="M152.362 463.056C144.829 469.509 143.955 480.847 150.408 488.379C156.862 495.912 168.199 496.787 175.732 490.333C183.265 483.88 184.139 472.542 177.686 465.009C171.233 457.477 159.895 456.602 152.362 463.056Z" fill="#2A94FE"/>
<path d="M213.968 502.247C195.555 518.022 193.417 545.737 209.192 564.15C224.967 582.563 252.682 584.701 271.095 568.926C289.508 553.151 291.647 525.436 275.871 507.023C260.096 488.61 232.381 486.472 213.968 502.247Z" fill="#2A94FE"/>
<path d="M315.633 474.71C298.336 489.529 296.327 515.564 311.146 532.861C325.965 550.158 352.001 552.167 369.298 537.348C386.595 522.529 388.604 496.494 373.785 479.197C358.966 461.9 332.93 459.891 315.633 474.71Z" fill="#2A94FE"/>
<path d="M303.558 588.414C296.583 594.39 295.773 604.888 301.748 611.862C307.724 618.837 318.222 619.647 325.197 613.671C332.171 607.696 332.981 597.198 327.006 590.223C321.03 583.249 310.532 582.439 303.558 588.414Z" fill="#2A94FE"/>
<path d="M32.4712 372.191C19.9169 382.947 18.4589 401.844 29.2146 414.398C39.9703 426.952 58.8669 428.41 71.4212 417.655C83.9755 406.899 85.4335 388.002 74.6778 375.448C63.922 362.894 45.0255 361.436 32.4712 372.191Z" fill="#2A94FE"/>
</g>
<defs>
<clipPath id="clip0_14_676">
<rect width="598.665" height="399.11" fill="white" transform="translate(714.298 303.088) rotate(139.412)"/>
</clipPath>
</defs>
</svg>
