<svg width="236" height="488" viewBox="0 0 236 488" fill="none" xmlns="http://www.w3.org/2000/svg">
<path d="M-7 0C14.2 6.25103 35.5 12.4012 51.5 24.9033C67.5 37.4053 78.3 56.1584 96.5 64.2243C114.7 72.3909 140.4 69.8704 157.8 78.8436C175.1 87.9177 184.3 108.486 195.6 127.037C207 145.588 220.6 162.224 227.7 181.582C234.8 200.94 235.4 222.92 236 245H-7V0Z" fill="#F0F4FF"/>
<path d="M-7 40.8335C10.7 45.9755 28.4 51.2183 41.7 61.603C55.1 71.9878 64.1 87.6154 79.2 94.3705C94.4 101.126 115.8 99.0084 130.3 106.57C144.8 114.132 152.4 131.171 161.9 146.698C171.3 162.224 182.7 176.037 188.6 192.169C194.5 208.301 195 226.65 195.5 245H-7V40.8335Z" fill="#D0DDFF"/>
<path d="M-7 81.6665C7.2 85.8002 21.3 89.934 32 98.3023C42.7 106.57 49.9 119.072 62 124.516C74.1 129.961 91.2 128.247 102.8 134.296C114.4 140.245 120.5 153.957 128.1 166.358C135.7 178.759 144.7 189.85 149.5 202.755C154.2 215.66 154.6 230.28 155 245H-7V81.6665Z" fill="#ADC7FF"/>
<path d="M-7 122.5C3.6 125.626 14.2 128.751 22.2 135.002C30.3 141.152 35.6 150.529 44.7 154.663C53.9 158.695 66.7 157.385 75.4 161.922C84.1 166.459 88.6 176.743 94.3 186.019C100 195.294 106.8 203.663 110.4 213.342C113.9 222.92 114.2 234.01 114.5 245H-7V122.5Z" fill="#87B2FF"/>
<path d="M-7 163.333C0.0999999 165.451 7.2 167.467 12.5 171.601C17.8 175.836 21.4 182.087 27.5 184.708C33.6 187.43 42.1 186.624 47.9 189.648C53.7 192.673 56.8 199.529 60.5 205.679C64.3 211.829 68.9 217.375 71.2 223.827C73.6 230.28 73.8 237.64 74 245H-7V163.333Z" fill="#549EFE"/>
<path d="M-7 204.167C-3.5 205.175 0.0999999 206.284 2.7 208.3C5.4 210.418 7.2 213.543 10.2 214.854C13.3 216.265 17.6 215.761 20.5 217.273C23.4 218.786 24.9 222.214 26.8 225.339C28.7 228.465 30.9 231.187 32.1 234.413C33.3 237.64 33.4 241.37 33.5 245H-7V204.167Z" fill="#2A94FE"/>
<path d="M236 245C229.8 266.2 223.7 287.5 211.3 303.5C198.9 319.5 180.3 330.3 172.3 348.5C164.2 366.7 166.7 392.4 157.8 409.8C148.8 427.1 128.4 436.3 110 447.6C91.6 459 75.1 472.6 55.9 479.7C36.7 486.8 14.9 487.4 -7 488L-7 245L236 245Z" fill="#F0F4FF"/>
<path d="M195.5 245C190.4 262.7 185.2 280.4 174.9 293.7C164.6 307.1 149.1 316.1 142.4 331.2C135.7 346.4 137.8 367.8 130.3 382.3C122.8 396.8 105.9 404.4 90.5 413.9C75.1 423.3 61.4 434.7 45.4 440.6C29.4 446.5 11.2 447 -7 447.5L-7 245L195.5 245Z" fill="#D0DDFF"/>
<path d="M155 245C150.9 259.2 146.8 273.3 138.5 284C130.3 294.7 117.9 301.9 112.5 314C107.1 326.1 108.8 343.2 102.8 354.8C96.9 366.4 83.3 372.5 71 380.1C58.7 387.7 47.7 396.7 34.9 401.5C22.1 406.2 7.6 406.6 -7 407L-7 245L155 245Z" fill="#ADC7FF"/>
<path d="M114.5 245C111.4 255.6 108.3 266.2 102.1 274.2C96 282.3 86.7 287.6 82.6 296.7C78.6 305.9 79.9 318.7 75.4 327.4C70.9 336.1 60.7 340.6 51.5 346.3C42.3 352 34 358.8 24.4 362.4C14.9 365.9 3.9 366.2 -7 366.5L-7 245L114.5 245Z" fill="#87B2FF"/>
<path d="M74 245C71.9 252.1 69.9 259.2 65.8 264.5C61.6 269.8 55.4 273.4 52.8 279.5C50.1 285.6 50.9 294.1 47.9 299.9C44.9 305.7 38.1 308.8 32 312.5C25.9 316.3 20.4 320.9 14 323.2C7.6 325.6 0.3 325.8 -7 326L-7 245L74 245Z" fill="#549EFE"/>
<path d="M33.5 245C32.5 248.5 31.4 252.1 29.4 254.7C27.3 257.4 24.2 259.2 22.9 262.2C21.5 265.3 22 269.6 20.5 272.5C19 275.4 15.6 276.9 12.5 278.8C9.4 280.7 6.7 282.9 3.5 284.1C0.3 285.3 -3.4 285.4 -7 285.5L-7 245H33.5Z" fill="#2A94FE"/>
</svg>
