<svg width="353" height="352" viewBox="0 0 353 352" fill="none" xmlns="http://www.w3.org/2000/svg">
<path d="M352.782 351.5C330.582 327.8 308.282 304.1 285.782 293.5C263.282 282.8 240.482 285.2 216.582 282.9C192.582 280.6 167.382 273.7 143.882 261.9C120.482 250.1 98.7817 233.4 87.7817 211.4C76.6817 189.3 76.1817 161.9 62.6817 139.7C49.0817 117.5 22.4817 100.6 10.0817 78.2C-2.31828 55.8 -0.518272 27.9 1.28173 0H352.782V351.5Z" fill="#ECF1FF"/>
<path d="M352.782 281.2C334.982 262.3 317.182 243.3 299.182 234.8C281.182 226.2 262.982 228.1 243.782 226.3C224.582 224.5 204.482 219 185.682 209.5C166.982 200.1 149.582 186.7 140.782 169.1C131.882 151.4 131.582 129.5 120.682 111.8C109.882 94 88.5817 80.5 78.5817 62.6C68.6817 44.7 70.0817 22.3 71.5817 0H352.782V281.2Z" fill="#C3D5FF"/>
<path d="M352.782 210.9C339.482 196.7 326.082 182.5 312.582 176.1C299.082 169.7 285.382 171.1 271.082 169.7C256.682 168.4 241.482 164.2 227.482 157.1C213.382 150.1 200.382 140.1 193.782 126.8C187.082 113.6 186.882 97.1 178.682 83.8C170.582 70.5 154.582 60.4 147.182 46.9C139.682 33.5 140.782 16.7 141.882 0H352.782V210.9Z" fill="#96BAFF"/>
<path d="M352.782 140.6C343.882 131.1 334.982 121.6 325.982 117.4C316.982 113.1 307.882 114.1 298.282 113.2C288.682 112.3 278.582 109.5 269.282 104.8C259.882 100 251.182 93.4 246.782 84.5C242.382 75.7 242.182 64.8 236.782 55.9C231.282 47 220.682 40.3 215.682 31.3C210.682 22.3 211.482 11.2 212.182 0H352.782V140.6Z" fill="#5CA0FF"/>
<path d="M352.782 70.3C348.382 65.6 343.882 60.8 339.382 58.7C334.882 56.6 330.282 57 325.582 56.6C320.782 56.1 315.682 54.7 310.982 52.4C306.282 50 301.982 46.7 299.782 42.3C297.582 37.9 297.482 32.4 294.782 27.9C292.082 23.5 286.682 20.1 284.282 15.6C281.782 11.2 282.082 5.6 282.482 0H352.782V70.3Z" fill="#2A94FE"/>
</svg>
